<?xml version="1.0" encoding="UTF-8" standalone="no"?>
<!-- Created with Inkscape (http://www.inkscape.org/) -->

<svg
   width="100"
   height="50"
   viewBox="0 0 298.40085 77.175064"
   version="1.1"
   id="svg488"
   xml:space="preserve"
   xmlns="http://www.w3.org/2000/svg"
   xmlns:svg="http://www.w3.org/2000/svg"><defs
     id="defs485" /><g
     id="layer1"
     transform="translate(41.323379,-115.90858)"><g
       id="g621"
       transform="translate(0.98808213,14.833713)"><path
         style="fill:#8c8c8c;fill-opacity:1;stroke-width:0.264583"
         d="m 184.48811,178.1176 c 0.25743,-0.0671 0.61462,-0.0627 0.79375,0.01 0.17913,0.0725 -0.0315,0.12736 -0.46805,0.12197 -0.43657,-0.005 -0.58313,-0.0647 -0.3257,-0.13178 z m -39.5437,-2.64322 c 0.19099,-0.0764 0.4192,-0.067 0.50711,0.0209 0.0879,0.0879 -0.0683,0.15045 -0.34726,0.13896 -0.30823,-0.0127 -0.37092,-0.0754 -0.15985,-0.15985 z m -3.93917,-1.34061 -0.64143,-0.72761 0.7276,0.64143 c 0.68006,0.59952 0.84894,0.81378 0.64143,0.81378 -0.0474,0 -0.37481,-0.32742 -0.7276,-0.7276 z m 6.63461,0.36312 c 0,-0.0549 0.20836,-0.2633 0.46302,-0.46302 0.41964,-0.32911 0.429,-0.31975 0.0999,0.0999 -0.34565,0.44073 -0.56292,0.58088 -0.56292,0.36312 z m 34.44741,-5.05948 c 0.005,-0.43656 0.0647,-0.58312 0.13178,-0.32569 0.0671,0.25743 0.0627,0.61462 -0.01,0.79375 -0.0725,0.17913 -0.12736,-0.0315 -0.12197,-0.46806 z M -22.669834,166.527 c 0.0015,-0.87313 0.05088,-1.19842 0.109766,-0.72287 0.05889,0.47555 0.05767,1.18992 -0.0027,1.5875 -0.06037,0.39758 -0.10855,0.008 -0.107065,-0.86463 z m 27.3685354,0.73931 c 0.3274219,-0.0631 0.8632031,-0.0631 1.190625,0 0.3274219,0.0631 0.059531,0.11466 -0.5953125,0.11466 -0.6548438,0 -0.9227344,-0.0516 -0.5953125,-0.11466 z m 49.8789936,0.003 c 0.257432,-0.0671 0.614619,-0.0627 0.79375,0.01 0.179131,0.0725 -0.03149,0.12736 -0.468056,0.12197 -0.436562,-0.005 -0.583125,-0.0647 -0.325694,-0.13177 z M 182.32115,167.0341 c 0.0127,-0.30822 0.0754,-0.37092 0.15986,-0.15985 0.0764,0.19099 0.067,0.4192 -0.0209,0.50712 -0.0879,0.0879 -0.15045,-0.0684 -0.13896,-0.34727 z m -130.353315,-0.97013 -0.504029,-0.59531 0.595313,0.50403 c 0.559445,0.47366 0.715761,0.6866 0.504028,0.6866 -0.05021,0 -0.318098,-0.26789 -0.595312,-0.59532 z m 97.544985,-0.0882 c 0.0127,-0.30823 0.0754,-0.37092 0.15985,-0.15985 0.0764,0.19099 0.067,0.4192 -0.0209,0.50712 -0.0879,0.0879 -0.15046,-0.0684 -0.13897,-0.34727 z M 0.23318024,165.6671 c -0.32910727,-0.41965 -0.31974896,-0.429 0.0998961,-0.0999 0.25466146,0.19972 0.46302084,0.40808 0.46302084,0.46302 0,0.21777 -0.21727319,0.0776 -0.56291694,-0.36312 z M 182.58574,165.18203 c 0.0127,-0.30823 0.0754,-0.37092 0.15985,-0.15985 0.0764,0.19099 0.067,0.4192 -0.0209,0.50712 -0.0879,0.0879 -0.15045,-0.0684 -0.13896,-0.34727 z M 78.814431,164.34418 c -0.329107,-0.41964 -0.319749,-0.429 0.0999,-0.0999 0.44073,0.34564 0.580888,0.56291 0.363125,0.56291 -0.05494,0 -0.2633,-0.20836 -0.463021,-0.46302 z m 5.060834,0.36313 c 0,-0.0549 0.208359,-0.2633 0.463021,-0.46302 0.419645,-0.32911 0.429003,-0.31975 0.0999,0.0999 -0.345644,0.44073 -0.562917,0.58089 -0.562917,0.36313 z m 75.901665,-0.62771 c -0.32911,-0.41965 -0.31975,-0.429 0.0999,-0.0999 0.44073,0.34565 0.58089,0.56292 0.36312,0.56292 -0.0549,0 -0.2633,-0.20836 -0.46302,-0.46302 z M 12.437764,163.64897 c 0,-0.0549 0.208359,-0.2633 0.463021,-0.46302 0.419645,-0.3291 0.429003,-0.31975 0.0999,0.0999 -0.345644,0.44073 -0.562917,0.58089 -0.562917,0.36312 z m 136.841166,-0.56156 c 0.005,-0.43656 0.0647,-0.58312 0.13177,-0.32569 0.0671,0.25743 0.0627,0.61462 -0.01,0.79375 -0.0725,0.17913 -0.12737,-0.0315 -0.12197,-0.46806 z m 44.41931,-0.28663 c 0.0127,-0.30823 0.0754,-0.37092 0.15985,-0.15985 0.0764,0.19099 0.067,0.4192 -0.0209,0.50712 -0.0879,0.0879 -0.15045,-0.0684 -0.13896,-0.34727 z m -225.160422,-2.64583 c 0.01269,-0.30823 0.07539,-0.37092 0.159853,-0.15986 0.07643,0.191 0.06703,0.4192 -0.02089,0.50712 -0.08792,0.0879 -0.150453,-0.0683 -0.138965,-0.34726 z m 81.227085,0 c 0.0127,-0.30823 0.07539,-0.37092 0.159851,-0.15986 0.07643,0.191 0.06703,0.4192 -0.02088,0.50712 -0.08792,0.0879 -0.150452,-0.0683 -0.138964,-0.34726 z M 194.2274,158.83203 c 0.0127,-0.30823 0.0754,-0.37092 0.15986,-0.15985 0.0764,0.19099 0.067,0.4192 -0.0209,0.50712 -0.0879,0.0879 -0.15045,-0.0684 -0.13896,-0.34727 z m -216.663056,-1.30087 c 0.0054,-0.43656 0.06469,-0.58312 0.131773,-0.32569 0.06708,0.25743 0.06267,0.61462 -0.0098,0.79375 -0.07248,0.17913 -0.127363,-0.0315 -0.121971,-0.46806 z m 71.98181,-0.26458 c 0.0029,-0.58208 0.05712,-0.78906 0.120406,-0.45994 0.06329,0.32912 0.06088,0.80537 -0.0053,1.05834 -0.06622,0.25296 -0.118005,-0.0163 -0.115068,-0.5984 z m -71.747919,-2.13872 c 0.0127,-0.30822 0.07539,-0.37092 0.159853,-0.15985 0.07643,0.191 0.06703,0.4192 -0.02089,0.50712 -0.08792,0.0879 -0.150453,-0.0684 -0.138965,-0.34727 z m 24.8499455,-0.47472 c 0,-0.0549 0.2083594,-0.2633 0.4630209,-0.46302 0.419645,-0.32911 0.4290033,-0.31975 0.099896,0.0999 -0.3456437,0.44073 -0.5629169,0.58088 -0.5629169,0.36312 z M 158.24407,153.80495 c 0.0127,-0.30823 0.0754,-0.37092 0.15985,-0.15986 0.0764,0.191 0.067,0.4192 -0.0209,0.50712 -0.0879,0.0879 -0.15046,-0.0684 -0.13897,-0.34726 z M 49.561417,151.97491 c 0.0016,-0.87312 0.05088,-1.19841 0.109765,-0.72286 0.05889,0.47555 0.05767,1.18992 -0.0027,1.5875 -0.06037,0.39757 -0.108551,0.008 -0.107067,-0.86464 z m 57.298843,0.99219 c -0.3291,-0.41965 -0.31974,-0.429 0.0999,-0.0999 0.44073,0.34565 0.58089,0.56292 0.36313,0.56292 -0.055,0 -0.2633,-0.20836 -0.46303,-0.46302 z M 4.2356805,152.80106 c 0,-0.0549 0.2083594,-0.2633 0.4630209,-0.46302 0.419645,-0.32911 0.4290033,-0.31975 0.099896,0.0999 -0.3456438,0.44073 -0.562917,0.58089 -0.562917,0.36313 z m 239.9570595,-2.74438 -0.64143,-0.7276 0.7276,0.64143 c 0.40018,0.35279 0.72761,0.68021 0.72761,0.7276 0,0.20751 -0.21426,0.0386 -0.81378,-0.64143 z M 7.1460972,149.59366 c 0.4936543,-0.50932 0.9570853,-0.92604 1.0298457,-0.92604 0.07276,0 -0.271608,0.41672 -0.7652623,0.92604 -0.4936543,0.50932 -0.9570853,0.92604 -1.0298457,0.92604 -0.07276,0 0.271608,-0.41672 0.7652623,-0.92604 z m -43.9869792,-0.32735 c 0.763984,-0.0534 2.01414,-0.0534 2.778125,0 0.763984,0.0534 0.138906,0.0972 -1.389063,0.0972 -1.527969,0 -2.153047,-0.0437 -1.389062,-0.0972 z m 19.187326,-0.78204 c 0.257432,-0.0671 0.61462,-0.0627 0.793751,0.01 0.17913,0.0725 -0.03149,0.12737 -0.468056,0.12197 -0.436563,-0.005 -0.583126,-0.0647 -0.325695,-0.13177 z m 3.963716,-0.26362 c 0.254661,-0.0666 0.67138,-0.0666 0.926041,0 0.254662,0.0666 0.0463,0.121 -0.463021,0.121 -0.509323,0 -0.717682,-0.0544 -0.46302,-0.121 z m 4.2383679,-0.26555 c 0.2574317,-0.0671 0.6146192,-0.0627 0.79375,0.01 0.1791309,0.0725 -0.031493,0.12736 -0.4680558,0.12197 -0.4365625,-0.005 -0.5831258,-0.0647 -0.3256942,-0.13178 z m 3.963715,-0.26361 c 0.2546615,-0.0665 0.6713802,-0.0665 0.9260417,0 0.2546615,0.0666 0.046302,0.121 -0.4630208,0.121 -0.509323,0 -0.7176823,-0.0545 -0.4630209,-0.121 z M 49.785789,147.3447 c 0,-0.3638 0.06006,-0.51263 0.133454,-0.33073 0.0734,0.18191 0.0734,0.47956 0,0.66146 -0.0734,0.1819 -0.133454,0.0331 -0.133454,-0.33073 z m -51.299761,0.0812 c 0.2574316,-0.0671 0.61461915,-0.0627 0.79375,0.01 0.17913086,0.0725 -0.0314933,0.12736 -0.4680559,0.12197 -0.4365625,-0.005 -0.5831258,-0.0647 -0.3256941,-0.13177 z m 4.36059,-0.26795 c 0.3274219,-0.0631 0.8632032,-0.0631 1.190625,0 0.3274219,0.0631 0.059531,0.11466 -0.5953125,0.11466 -0.6548437,0 -0.9227344,-0.0516 -0.5953125,-0.11466 z m 5.9581601,-0.26121 c 0.2574317,-0.0671 0.6146192,-0.0627 0.79375,0.01 0.1791309,0.0725 -0.031493,0.12737 -0.4680558,0.12197 -0.4365625,-0.005 -0.5831258,-0.0647 -0.3256942,-0.13177 z m 41.2455949,-2.1979 c 0,-0.3638 0.06005,-0.51263 0.133453,-0.33073 0.0734,0.1819 0.0734,0.47956 0,0.66146 -0.0734,0.1819 -0.133453,0.0331 -0.133453,-0.33073 z m 14.266614,-0.15434 c 0.0127,-0.30823 0.07539,-0.37092 0.15985,-0.15985 0.07643,0.19099 0.06703,0.4192 -0.02088,0.50712 -0.08792,0.0879 -0.150453,-0.0684 -0.138965,-0.34727 z m -25.205915,-0.82015 c 0.190994,-0.0764 0.4192,-0.067 0.507118,0.0209 0.08792,0.0879 -0.06835,0.15045 -0.347265,0.13896 -0.308227,-0.0127 -0.37092,-0.0754 -0.159853,-0.15985 z m -76.200001,-0.26458 c 0.190996,-0.0764 0.419199,-0.067 0.507118,0.0209 0.08792,0.0879 -0.06835,0.15046 -0.347266,0.13897 -0.308224,-0.0127 -0.370919,-0.0754 -0.159852,-0.15985 z m 78.052084,0 c 0.190995,-0.0764 0.4192,-0.067 0.507119,0.0209 0.08792,0.0879 -0.06835,0.15046 -0.347266,0.13897 -0.308226,-0.0127 -0.370919,-0.0754 -0.159853,-0.15985 z m 2.116667,-0.26459 c 0.190994,-0.0764 0.4192,-0.067 0.507119,0.0209 0.08792,0.0879 -0.06835,0.15045 -0.347266,0.13896 -0.308226,-0.0127 -0.370919,-0.0754 -0.159853,-0.15985 z m 69.726328,-0.22754 c -0.0862,-0.22456 -0.0976,-0.46741 -0.0253,-0.53966 0.0722,-0.0723 0.19488,0.11147 0.2725,0.40828 0.16487,0.63049 -0.0183,0.72784 -0.2472,0.13138 z m -145.926329,-0.037 c 0.190996,-0.0764 0.419199,-0.067 0.507118,0.0209 0.08792,0.0879 -0.06835,0.15045 -0.347266,0.13896 -0.308224,-0.0127 -0.370919,-0.0754 -0.159852,-0.15985 z m 78.316667,0 c 0.190995,-0.0764 0.419201,-0.067 0.507119,0.0209 0.08792,0.0879 -0.06835,0.15045 -0.347265,0.13896 -0.308227,-0.0127 -0.37092,-0.0754 -0.159854,-0.15985 z m 204.009602,-0.28228 c -0.32909,-0.41965 -0.31975,-0.429 0.0999,-0.0999 0.25466,0.19972 0.46302,0.40808 0.46302,0.46302 0,0.21777 -0.21728,0.0776 -0.56293,-0.36312 z m -280.209603,0.0177 c 0.190997,-0.0764 0.4192,-0.067 0.507119,0.0209 0.08792,0.0879 -0.06835,0.15045 -0.347266,0.13896 -0.308225,-0.0127 -0.370919,-0.0754 -0.159853,-0.15985 z m 78.581251,0 c 0.190995,-0.0764 0.419201,-0.067 0.507119,0.0209 0.08792,0.0879 -0.06835,0.15045 -0.347265,0.13896 -0.308227,-0.0127 -0.37092,-0.0754 -0.159854,-0.15985 z m 17.003832,-0.23818 c 0.0127,-0.30823 0.07539,-0.37092 0.159851,-0.15986 0.07643,0.191 0.06703,0.4192 -0.02088,0.50712 -0.08792,0.0879 -0.150453,-0.0683 -0.138964,-0.34726 z m -93.468416,-0.0264 c 0.190996,-0.0764 0.419199,-0.067 0.507118,0.0209 0.08792,0.0879 -0.06835,0.15045 -0.347265,0.13896 -0.308225,-0.0127 -0.37092,-0.0754 -0.159853,-0.15985 z m 94.841625,-1.06094 c 0.257431,-0.0671 0.614619,-0.0627 0.79375,0.01 0.179131,0.0725 -0.03149,0.12737 -0.468056,0.12197 -0.436563,-0.005 -0.583126,-0.0647 -0.325694,-0.13177 z m 48.215281,-0.0812 -1.5875,-0.17563 1.65364,-0.0445 c 0.9557,-0.0257 1.65365,0.0672 1.65365,0.22011 0,0.14552 -0.0298,0.24456 -0.0661,0.2201 -0.0364,-0.0245 -0.78052,-0.12351 -1.65364,-0.2201 z M -17.509762,141.0786 c 0.190994,-0.0764 0.419197,-0.067 0.507119,0.0209 0.08792,0.0879 -0.06835,0.15046 -0.347266,0.13897 -0.308226,-0.0127 -0.370919,-0.0754 -0.159853,-0.15985 z m 86.783334,0 c 0.190995,-0.0764 0.4192,-0.067 0.507119,0.0209 0.08792,0.0879 -0.06835,0.15046 -0.347266,0.13897 -0.308226,-0.0127 -0.370919,-0.0754 -0.159853,-0.15985 z m 6.085417,0 c 0.190994,-0.0764 0.4192,-0.067 0.507119,0.0209 0.08792,0.0879 -0.06835,0.15046 -0.347266,0.13897 -0.308226,-0.0127 -0.370919,-0.0754 -0.159853,-0.15985 z m 60.573051,0.005 c 0.1819,-0.0734 0.47955,-0.0734 0.66145,0 0.18191,0.0734 0.0331,0.13345 -0.33072,0.13345 -0.36381,0 -0.51263,-0.06 -0.33073,-0.13345 z m -151.060552,-0.27009 c 0.190994,-0.0764 0.419198,-0.067 0.507119,0.0209 0.08792,0.0879 -0.06835,0.15045 -0.347266,0.13897 -0.308226,-0.0127 -0.370919,-0.0754 -0.159853,-0.15985 z m 154.500132,0.005 c 0.1819,-0.0734 0.47956,-0.0734 0.66146,0 0.1819,0.0734 0.0331,0.13345 -0.33073,0.13345 -0.3638,0 -0.51263,-0.06 -0.33073,-0.13345 z m 107.7178,-0.28778 c -0.32909,-0.41964 -0.31975,-0.429 0.0999,-0.0999 0.44072,0.34564 0.58089,0.56291 0.36311,0.56291 -0.0549,0 -0.26328,-0.20836 -0.46302,-0.46302 z m -259.836682,0.0177 c 0.190994,-0.0764 0.419198,-0.067 0.507119,0.0209 0.08792,0.0879 -0.06835,0.15045 -0.347266,0.13896 -0.308226,-0.0127 -0.370919,-0.0754 -0.159853,-0.15985 z m 155.558462,0.006 c 0.1819,-0.0734 0.47956,-0.0734 0.66146,0 0.1819,0.0734 0.0331,0.13345 -0.33073,0.13345 -0.3638,0 -0.51263,-0.0601 -0.33073,-0.13345 z m -153.177212,-0.2701 c 0.190994,-0.0764 0.4191976,-0.067 0.5071186,0.0209 0.087918,0.0879 -0.068352,0.15045 -0.3472656,0.13896 -0.308226,-0.0127 -0.370919,-0.0754 -0.159853,-0.15985 z m 156.616802,0.006 c 0.1819,-0.0734 0.47955,-0.0734 0.66145,0 0.18191,0.0734 0.0331,0.13345 -0.33072,0.13345 -0.36381,0 -0.51263,-0.0601 -0.33073,-0.13345 z M -7.720179,140.0202 c 0.1909948,-0.0764 0.4191979,-0.067 0.507119,0.0209 0.087918,0.0879 -0.068353,0.15045 -0.3472657,0.13896 -0.3082263,-0.0127 -0.3709193,-0.0754 -0.1598533,-0.15985 z m 223.043749,0 c 0.191,-0.0764 0.4192,-0.067 0.50712,0.0209 0.0879,0.0879 -0.0684,0.15045 -0.34726,0.13896 -0.30823,-0.0127 -0.37092,-0.0754 -0.15986,-0.15985 z M -5.3554654,139.76114 c 0.181901,-0.0734 0.4795573,-0.0734 0.6614583,0 0.1819011,0.0734 0.033073,0.13346 -0.3307291,0.13346 -0.3638021,0 -0.5126302,-0.0601 -0.3307292,-0.13346 z m 2.6623698,-0.27009 c 0.1909948,-0.0764 0.4191979,-0.067 0.507119,0.0209 0.087918,0.0879 -0.068353,0.15046 -0.3472657,0.13897 -0.3082263,-0.0127 -0.3709193,-0.0754 -0.1598533,-0.15985 z m 2.64583338,-0.26459 c 0.19099478,-0.0764 0.4191979,-0.067 0.50711895,0.0209 0.0879184,0.0879 -0.0683525,0.15045 -0.34726563,0.13896 -0.30822636,-0.0127 -0.37091938,-0.0754 -0.15985332,-0.15985 z m 160.05638222,0.006 c 0.1819,-0.0734 0.47956,-0.0734 0.66146,0 0.1819,0.0734 0.0331,0.13345 -0.33073,0.13345 -0.3638,0 -0.51263,-0.06 -0.33073,-0.13345 z M 2.3174513,138.96738 c 0.1819011,-0.0734 0.4795573,-0.0734 0.6614584,0 0.181901,0.0734 0.033073,0.13346 -0.3307292,0.13346 -0.3638021,0 -0.5126302,-0.0601 -0.3307292,-0.13346 z M 5.227868,138.7028 c 0.1819011,-0.0734 0.4795573,-0.0734 0.6614584,0 0.181901,0.0734 0.033073,0.13345 -0.3307292,0.13345 -0.3638021,0 -0.5126302,-0.0601 -0.3307292,-0.13345 z m 2.6458334,-0.26458 c 0.1819011,-0.0734 0.4795573,-0.0734 0.6614583,0 0.1819011,0.0734 0.033073,0.13345 -0.3307291,0.13345 -0.3638021,0 -0.5126302,-0.0601 -0.3307292,-0.13345 z m 2.9269536,-0.2701 c 0.190994,-0.0764 0.419197,-0.067 0.507119,0.0209 0.08792,0.0879 -0.06835,0.15045 -0.347266,0.13896 -0.308226,-0.0127 -0.37092,-0.0754 -0.159853,-0.15985 z m 164.025135,0.006 c 0.1819,-0.0734 0.47955,-0.0734 0.66145,0 0.18191,0.0734 0.0331,0.13345 -0.33072,0.13345 -0.36381,0 -0.51263,-0.0601 -0.33073,-0.13345 z M 13.429951,137.90904 c 0.181902,-0.0734 0.479558,-0.0734 0.661459,0 0.181901,0.0734 0.03307,0.13346 -0.330729,0.13346 -0.363802,0 -0.512631,-0.0601 -0.33073,-0.13346 z m 165.099999,0 c 0.1819,-0.0734 0.47956,-0.0734 0.66146,0 0.1819,0.0734 0.0331,0.13346 -0.33073,0.13346 -0.3638,0 -0.51263,-0.0601 -0.33073,-0.13346 z m 26.72292,0 c 0.1819,-0.0734 0.47956,-0.0734 0.66146,0 0.1819,0.0734 0.0331,0.13346 -0.33073,0.13346 -0.3638,0 -0.51263,-0.0601 -0.33073,-0.13346 z M 16.356905,137.63895 c 0.190994,-0.0764 0.419198,-0.067 0.507119,0.0209 0.08792,0.0879 -0.06835,0.15046 -0.347266,0.13897 -0.308226,-0.0127 -0.370919,-0.0754 -0.159853,-0.15985 z m 166.674045,-0.006 c 0.32912,-0.0633 0.80537,-0.0609 1.05834,0.005 0.25296,0.0662 -0.0163,0.118 -0.5984,0.11506 -0.58208,-0.003 -0.78905,-0.0571 -0.45994,-0.1204 z m 8.00057,-0.0774 -0.92605,-0.19492 0.99219,-0.0348 c 0.5457,-0.0192 0.99219,0.0842 0.99219,0.22975 0,0.14552 -0.0298,0.24891 -0.0662,0.22975 -0.0364,-0.0192 -0.48286,-0.12254 -0.99218,-0.22975 z m 10.91406,0.0822 c 0.25466,-0.0665 0.67138,-0.0665 0.92604,0 0.25466,0.0666 0.0463,0.121 -0.46302,0.121 -0.50932,0 -0.71768,-0.0545 -0.46302,-0.121 z M 20.110681,136.94316 c 0,-0.0455 0.386953,-0.43249 0.859896,-0.85989 l 0.859895,-0.77711 -0.777105,0.8599 c -0.724371,0.80154 -0.942686,0.98151 -0.942686,0.7771 z m -46.281196,-1.92363 c 0.0127,-0.30823 0.07539,-0.37092 0.159852,-0.15985 0.07643,0.19099 0.06703,0.4192 -0.02089,0.50712 -0.08792,0.0879 -0.150453,-0.0684 -0.138965,-0.34727 z m 49.985362,-1.53306 c 0,-0.0549 0.20836,-0.2633 0.463021,-0.46302 0.419645,-0.3291 0.429004,-0.31975 0.0999,0.0999 -0.345643,0.44073 -0.562917,0.58089 -0.562917,0.36312 z M 85.06589,132.8901 c 1.895115,-0.19677 4.042148,-0.2139 3.928623,-0.0313 -0.06787,0.10914 -1.158166,0.17938 -2.422885,0.15609 -1.264719,-0.0233 -1.942301,-0.0794 -1.505738,-0.12476 z m -12.099949,-0.28923 c 0.475549,-0.0589 1.189924,-0.0577 1.5875,0.003 0.397576,0.0604 0.0085,0.10855 -0.864635,0.10706 -0.873125,-0.002 -1.198414,-0.0509 -0.722865,-0.10976 z m 43.910199,7.9e-4 c 0.46969,-0.0585 1.30313,-0.0594 1.85208,-0.002 0.54895,0.0573 0.16465,0.10509 -0.854,0.10627 -1.01864,0.001 -1.46778,-0.0457 -0.99808,-0.10414 z m 9.40224,-0.26348 c 0.40218,-0.0608 0.9975,-0.0592 1.32292,0.004 0.32542,0.0628 -0.004,0.11255 -0.73124,0.11057 -0.72761,-0.002 -0.99386,-0.0534 -0.59168,-0.11419 z m -75.698841,-1.13306 c 0,-0.3638 0.06006,-0.51263 0.133454,-0.33073 0.0734,0.1819 0.0734,0.47956 0,0.66146 -0.0734,0.1819 -0.133454,0.0331 -0.133454,-0.33073 z m 95.538951,0.34678 c 0.25467,-0.0665 0.67138,-0.0665 0.92605,0 0.25466,0.0666 0.0463,0.121 -0.46302,0.121 -0.50933,0 -0.71769,-0.0545 -0.46303,-0.121 z M 26.196097,131.36981 c 0,-0.0549 0.20836,-0.2633 0.463021,-0.46302 0.419645,-0.32911 0.429004,-0.31975 0.0999,0.0999 -0.345643,0.44073 -0.562917,0.58089 -0.562917,0.36313 z m 120.120833,-0.26459 c 0,-0.0549 0.20836,-0.2633 0.46302,-0.46302 0.41965,-0.3291 0.42901,-0.31975 0.0999,0.0999 -0.34564,0.44073 -0.56292,0.58089 -0.56292,0.36312 z m -34.90411,-0.58361 c 0.0127,-0.30822 0.0754,-0.37092 0.15985,-0.15985 0.0764,0.191 0.067,0.4192 -0.0209,0.50712 -0.0879,0.0879 -0.15046,-0.0683 -0.13897,-0.34727 z M 66.728928,130.0145 c 0.0054,-0.43657 0.06469,-0.58313 0.131773,-0.3257 0.06708,0.25743 0.06267,0.61462 -0.0098,0.79375 -0.07248,0.17913 -0.127362,-0.0315 -0.12197,-0.46805 z m 97.844252,0.55919 c 0,-0.0562 0.3509,-0.15376 0.77978,-0.21671 0.42888,-0.0629 0.7195,-0.0169 0.64584,0.10226 -0.1311,0.21214 -1.42562,0.31606 -1.42562,0.11445 z m -189.949945,-0.58124 c 0.01269,-0.30823 0.07539,-0.37092 0.159852,-0.15986 0.07643,0.191 0.06703,0.4192 -0.02089,0.50712 -0.08792,0.0879 -0.150453,-0.0684 -0.138965,-0.34726 z m 202.322305,-0.29738 c 0.32912,-0.0633 0.80537,-0.0609 1.05833,0.005 0.25297,0.0662 -0.0163,0.118 -0.5984,0.11507 -0.58208,-0.003 -0.78905,-0.0571 -0.45993,-0.12041 z m -28.77652,-0.17735 c 0,-0.0549 0.20835,-0.2633 0.46302,-0.46302 0.41964,-0.3291 0.429,-0.31975 0.0999,0.0999 -0.34564,0.44073 -0.56291,0.58089 -0.56291,0.36312 z m 33.14409,-0.0834 c 0.25743,-0.0671 0.61462,-0.0627 0.79375,0.01 0.17913,0.0725 -0.0315,0.12737 -0.46805,0.12197 -0.43657,-0.005 -0.58313,-0.0647 -0.3257,-0.13177 z M 28.577347,129.25314 c 0,-0.0549 0.20836,-0.2633 0.463021,-0.46302 0.419645,-0.32911 0.429004,-0.31975 0.0999,0.0999 -0.345643,0.44073 -0.562917,0.58088 -0.562917,0.36312 z m 156.704513,-0.0835 c 0.25743,-0.0671 0.61462,-0.0627 0.79375,0.01 0.17913,0.0725 -0.0315,0.12736 -0.46805,0.12197 -0.43657,-0.005 -0.58313,-0.0647 -0.3257,-0.13177 z M 50.29407,128.66953 c 0.0127,-0.30823 0.07539,-0.37092 0.159851,-0.15985 0.07643,0.19099 0.06703,0.4192 -0.02088,0.50712 -0.08792,0.0879 -0.150453,-0.0684 -0.138965,-0.34727 z m 138.95654,0.23557 c 0.25743,-0.0671 0.61462,-0.0627 0.79375,0.01 0.17913,0.0725 -0.0315,0.12736 -0.46805,0.12197 -0.43657,-0.005 -0.58313,-0.0647 -0.3257,-0.13178 z m 4.49792,-0.26458 c 0.25743,-0.0671 0.61462,-0.0627 0.79375,0.01 0.17913,0.0725 -0.0315,0.12737 -0.46806,0.12197 -0.43656,-0.005 -0.58312,-0.0647 -0.32569,-0.13177 z m 35.06879,-0.26197 c 0.19101,-0.0764 0.41921,-0.067 0.50713,0.0209 0.0879,0.0879 -0.0684,0.15046 -0.34727,0.13897 -0.30823,-0.0127 -0.37091,-0.0754 -0.15986,-0.15985 z m 2.36472,-0.25907 c 0.1819,-0.0734 0.47955,-0.0734 0.66146,0 0.1819,0.0734 0.0331,0.13345 -0.33073,0.13345 -0.36381,0 -0.51263,-0.0601 -0.33073,-0.13345 z m -23.93976,-0.27271 c 0.25743,-0.0671 0.61462,-0.0627 0.79375,0.01 0.17913,0.0725 -0.0315,0.12737 -0.46806,0.12197 -0.43656,-0.005 -0.58312,-0.0647 -0.32569,-0.13177 z m 26.58559,0.008 c 0.1819,-0.0734 0.47956,-0.0734 0.66146,0 0.1819,0.0734 0.0331,0.13345 -0.33073,0.13345 -0.3638,0 -0.51263,-0.06 -0.33073,-0.13345 z m -22.09271,-0.27174 c 0.25466,-0.0666 0.67138,-0.0666 0.92604,0 0.25467,0.0665 0.0463,0.121 -0.46302,0.121 -0.50932,0 -0.71768,-0.0545 -0.46302,-0.121 z m 24.4905,0.002 c 0.191,-0.0764 0.4192,-0.067 0.50712,0.0209 0.0879,0.0879 -0.0684,0.15045 -0.34726,0.13897 -0.30824,-0.0127 -0.37092,-0.0754 -0.15986,-0.15985 z M 31.090889,126.97179 c 0.26339,-0.29104 0.538422,-0.52917 0.611182,-0.52917 0.07276,0 -0.08321,0.23813 -0.346599,0.52917 -0.26339,0.29104 -0.538421,0.52916 -0.611182,0.52916 -0.07276,0 0.08321,-0.23812 0.346599,-0.52916 z m 10.980209,0.16468 c 0,-0.0549 0.208359,-0.2633 0.46302,-0.46302 0.419645,-0.3291 0.429004,-0.31975 0.0999,0.0999 -0.345644,0.44073 -0.562917,0.58089 -0.562917,0.36312 z m 24.912608,-0.42927 c 0,-0.3638 0.06006,-0.51263 0.133453,-0.33073 0.0734,0.18191 0.0734,0.47956 0,0.66146 -0.0734,0.1819 -0.133453,0.0331 -0.133453,-0.33073 z m -16.954219,-0.41892 c 0.0127,-0.30823 0.07539,-0.37092 0.15985,-0.15985 0.07643,0.19099 0.06703,0.4192 -0.02088,0.50712 -0.08792,0.0879 -0.150453,-0.0684 -0.138965,-0.34727 z m 113.292843,-1.69774 c 0,-0.65485 0.0516,-0.92274 0.11466,-0.59532 0.0631,0.32743 0.0631,0.86321 0,1.19063 -0.0631,0.32742 -0.11466,0.0595 -0.11466,-0.59531 z m -130.247066,0.69385 c 0,-0.0549 0.20836,-0.2633 0.463021,-0.46302 0.419645,-0.32911 0.429003,-0.31975 0.0999,0.0999 -0.345644,0.44073 -0.562917,0.58088 -0.562917,0.36312 z m -57.658279,-0.84819 c 0.0127,-0.30823 0.07539,-0.37092 0.159852,-0.15986 0.07643,0.191 0.06703,0.4192 -0.02089,0.50712 -0.08792,0.0879 -0.150453,-0.0684 -0.138965,-0.34726 z m 91.84111,-1.03629 c 0.0054,-0.43656 0.06469,-0.58312 0.131773,-0.32569 0.06708,0.25743 0.06267,0.61462 -0.0098,0.79375 -0.07248,0.17913 -0.127362,-0.0315 -0.12197,-0.46806 z m 122.517225,-0.52916 c 0.003,-0.58209 0.0571,-0.78906 0.12041,-0.45994 0.0633,0.32912 0.0609,0.80537 -0.005,1.05833 -0.0662,0.25297 -0.118,-0.0163 -0.11506,-0.59839 z m -154.318806,0.29697 c 0,-0.0549 0.20836,-0.2633 0.463021,-0.46302 0.419645,-0.3291 0.429003,-0.31975 0.0999,0.0999 -0.345644,0.44073 -0.562917,0.58089 -0.562917,0.36312 z m -59.754057,-1.22302 c 0,-0.3638 0.06005,-0.51263 0.133452,-0.33073 0.0734,0.18191 0.0734,0.47956 0,0.66146 -0.0734,0.1819 -0.133452,0.0331 -0.133452,-0.33073 z m 61.870724,-0.62906 c 0,-0.0549 0.208359,-0.2633 0.463021,-0.46302 0.419645,-0.32911 0.429003,-0.31975 0.0999,0.0999 -0.345644,0.44073 -0.562917,0.58088 -0.562917,0.36312 z m 29.939692,-1.22302 c 0,-0.3638 0.06006,-0.51263 0.133453,-0.33073 0.0734,0.1819 0.0734,0.47956 0,0.66146 -0.0734,0.1819 -0.133453,0.0331 -0.133453,-0.33073 z m -27.558442,-0.89365 c 0,-0.0549 0.208359,-0.2633 0.463021,-0.46302 0.419645,-0.3291 0.429003,-0.31975 0.0999,0.0999 -0.345644,0.44073 -0.562917,0.58089 -0.562917,0.36312 z m -78.379729,-1.14556 c 0.329119,-0.0633 0.805369,-0.0609 1.058334,0.005 0.252965,0.0662 -0.01631,0.11801 -0.598398,0.11507 -0.582083,-0.003 -0.789054,-0.0571 -0.459936,-0.12041 z m 5.027084,-0.26459 c 0.329118,-0.0633 0.805368,-0.0609 1.058333,0.005 0.252965,0.0662 -0.01631,0.118 -0.598397,0.11507 -0.582084,-0.003 -0.789055,-0.0571 -0.459936,-0.12041 z m 5.027083,-0.26458 c 0.329119,-0.0633 0.805369,-0.0609 1.058333,0.005 0.252965,0.0662 -0.01631,0.118 -0.598397,0.11506 -0.582083,-0.003 -0.789054,-0.0571 -0.459936,-0.1204 z m 15.408895,-0.19413 c 0,-0.20969 0.107958,-0.44798 0.239908,-0.52953 0.13195,-0.0815 0.177594,0.09 0.101433,0.38126 -0.161557,0.6178 -0.341341,0.69589 -0.341341,0.14827 z m 80.739692,-0.41249 c 0,-0.3638 0.06006,-0.51263 0.133453,-0.33073 0.0734,0.1819 0.0734,0.47956 0,0.66146 -0.0734,0.1819 -0.133453,0.0331 -0.133453,-0.33073 z m 188.156274,-0.79375 c 0,-0.80036 0.0496,-1.12779 0.11022,-0.7276 0.0606,0.40018 0.0606,1.05502 0,1.4552 -0.0606,0.40019 -0.11022,0.0728 -0.11022,-0.7276 z m -213.598049,0.95844 c 0,-0.0549 0.208359,-0.2633 0.463021,-0.46302 0.419645,-0.32911 0.429003,-0.31975 0.0999,0.0999 -0.345644,0.44073 -0.562917,0.58089 -0.562917,0.36313 z m 190.185809,-1.40376 c 0.191,-0.0764 0.41921,-0.067 0.50713,0.0209 0.0879,0.0879 -0.0684,0.15046 -0.34727,0.13897 -0.30824,-0.0127 -0.37092,-0.0754 -0.15986,-0.15985 z m 3.42614,-0.27098 c 0.32912,-0.0633 0.80537,-0.0609 1.05834,0.005 0.25294,0.0662 -0.0164,0.118 -0.59841,0.11507 -0.58209,-0.003 -0.78907,-0.0571 -0.45993,-0.12041 z M 44.452348,115.23022 c 0,-0.0549 0.208359,-0.2633 0.46302,-0.46302 0.419646,-0.3291 0.429004,-0.31975 0.0999,0.0999 -0.345644,0.44073 -0.562917,0.58089 -0.562917,0.36312 z m -86.731754,-0.82614 c 0.0054,-0.43656 0.06469,-0.58313 0.131773,-0.32569 0.06708,0.25743 0.06267,0.61461 -0.0098,0.79374 -0.07248,0.17914 -0.127363,-0.0315 -0.12197,-0.46805 z M 68.087085,112.552 c 0.0011,-1.01865 0.049,-1.40295 0.106272,-0.854 0.05727,0.54895 0.05631,1.38239 -0.0021,1.85208 -0.05847,0.4697 -0.105331,0.0206 -0.104156,-0.99808 z m -21.253487,0.56156 c 0,-0.0549 0.208359,-0.2633 0.46302,-0.46302 0.419646,-0.32911 0.429004,-0.31975 0.0999,0.0999 -0.345644,0.44073 -0.562917,0.58089 -0.562917,0.36313 z m -89.143697,-1.37736 c 0.0127,-0.30823 0.07539,-0.37092 0.159853,-0.15986 0.07643,0.191 0.06703,0.4192 -0.02089,0.50712 -0.08792,0.0879 -0.150453,-0.0683 -0.138964,-0.34726 z m 52.581587,-0.0264 c 0.190995,-0.0764 0.419198,-0.067 0.507119,0.0209 0.08792,0.0879 -0.06835,0.15045 -0.347266,0.13896 -0.308226,-0.0127 -0.370919,-0.0754 -0.159853,-0.15985 z m 5.55625,-0.79375 c 0.190995,-0.0764 0.419198,-0.067 0.507119,0.0209 0.08792,0.0879 -0.06835,0.15045 -0.347266,0.13896 -0.308226,-0.0127 -0.370919,-0.0754 -0.159853,-0.15985 z m 33.38711,0.0808 c 0,-0.0549 0.208359,-0.2633 0.463021,-0.46302 0.419645,-0.32911 0.429003,-0.31975 0.0999,0.0999 -0.345644,0.44073 -0.562917,0.58088 -0.562917,0.36312 z m 133.106302,-0.58361 c 0.0127,-0.30822 0.0754,-0.37092 0.15986,-0.15985 0.0764,0.19099 0.067,0.4192 -0.0209,0.50712 -0.0879,0.0879 -0.15045,-0.0683 -0.13896,-0.34727 z M 51.331514,109.14481 c 0,-0.0549 0.20836,-0.2633 0.463021,-0.46302 0.419645,-0.32911 0.429004,-0.31975 0.0999,0.0999 -0.345643,0.44073 -0.562917,0.58089 -0.562917,0.36313 z m 201.719656,-0.76 -0.50403,-0.59531 0.59531,0.50402 c 0.55944,0.47367 0.71575,0.6866 0.50404,0.6866 -0.0502,0 -0.31811,-0.26789 -0.59532,-0.59531 z m -40.12538,0.1555 c 0.1819,-0.0734 0.47955,-0.0734 0.66146,0 0.1819,0.0734 0.0331,0.13345 -0.33073,0.13345 -0.36381,0 -0.51263,-0.0601 -0.33073,-0.13345 z m -30.29956,-0.88311 c 0,-0.50932 0.0545,-0.71768 0.121,-0.46302 0.0666,0.25466 0.0666,0.67138 0,0.92604 -0.0666,0.25467 -0.121,0.0463 -0.121,-0.46302 z m 28.19943,0.61301 c 0.19099,-0.0764 0.4192,-0.067 0.50712,0.0209 0.0879,0.0879 -0.0684,0.15046 -0.34727,0.13897 -0.30823,-0.0127 -0.37092,-0.0754 -0.15985,-0.15986 z m -245.004173,-0.26458 c 0.190997,-0.0764 0.4192,-0.067 0.507119,0.0209 0.08792,0.0879 -0.06835,0.15045 -0.347266,0.13896 -0.308225,-0.0127 -0.370919,-0.0754 -0.159853,-0.15985 z m -2.645833,-0.26458 c 0.190996,-0.0764 0.419199,-0.067 0.507118,0.0209 0.08792,0.0879 -0.06835,0.15045 -0.347265,0.13896 -0.308225,-0.0127 -0.37092,-0.0754 -0.159853,-0.15985 z m 243.681256,0 c 0.19099,-0.0764 0.4192,-0.067 0.50712,0.0209 0.0879,0.0879 -0.0684,0.15045 -0.34727,0.13896 -0.30823,-0.0127 -0.37092,-0.0754 -0.15985,-0.15985 z m -235.214589,-0.26459 c 0.190996,-0.0764 0.419199,-0.067 0.507118,0.0209 0.08792,0.0879 -0.06835,0.15046 -0.347266,0.13897 -0.308224,-0.0127 -0.370919,-0.0754 -0.159852,-0.15986 z m 280.209599,-0.28228 c -0.32909,-0.41964 -0.31975,-0.429 0.0999,-0.0999 0.44072,0.34564 0.58089,0.56291 0.36311,0.56291 -0.0549,0 -0.26328,-0.20836 -0.46302,-0.46302 z m -225.126656,0.0986 c 0,-0.055 0.208359,-0.26331 0.463021,-0.46303 0.419645,-0.3291 0.429003,-0.31974 0.0999,0.0999 -0.345644,0.44073 -0.562917,0.58089 -0.562917,0.36313 z m -51.64336,-0.34543 c 0.190996,-0.0764 0.419199,-0.067 0.507118,0.0209 0.08792,0.0879 -0.06835,0.15045 -0.347265,0.13896 -0.308225,-0.0127 -0.37092,-0.0754 -0.159853,-0.15985 z m 1.852084,-0.26459 c 0.190996,-0.0764 0.419199,-0.067 0.507118,0.0209 0.08792,0.0879 -0.06835,0.15046 -0.347266,0.13897 -0.308224,-0.0127 -0.370919,-0.0754 -0.159852,-0.15986 z m 89.58593,-0.67915 -0.504028,-0.59531 0.595312,0.50402 c 0.559446,0.47367 0.715761,0.6866 0.504029,0.6866 -0.05021,0 -0.318098,-0.26789 -0.595313,-0.59531 z m -38.68474,-0.8599 c 0.0054,-0.43656 0.06469,-0.58312 0.131773,-0.32569 0.06708,0.25743 0.06267,0.61462 -0.0098,0.79375 -0.07246,0.17913 -0.127349,-0.0315 -0.121957,-0.46806 z m -42.16994,0.21614 c 0.190994,-0.0764 0.419198,-0.067 0.507119,0.0209 0.08792,0.0879 -0.06835,0.15045 -0.347266,0.13896 -0.308226,-0.0127 -0.370919,-0.0754 -0.159853,-0.15985 z m 74.877084,-0.52917 c 0.190995,-0.0764 0.4192,-0.067 0.507119,0.0209 0.08792,0.0879 -0.06835,0.15045 -0.347266,0.13896 -0.308226,-0.0127 -0.370919,-0.0754 -0.159853,-0.15985 z M -9.0430956,104.5661 c 0.1909947,-0.0764 0.4191979,-0.067 0.5071189,0.0209 0.087918,0.0879 -0.068352,0.15045 -0.3472656,0.13896 -0.3082264,-0.0127 -0.3709194,-0.0754 -0.1598533,-0.15985 z m 3.4395833,-0.52917 c 0.1909948,-0.0764 0.4191979,-0.067 0.507119,0.0209 0.087918,0.0879 -0.068353,0.15045 -0.3472657,0.13896 -0.3082263,-0.0127 -0.3709193,-0.0754 -0.1598533,-0.15985 z m 1.8520834,-0.26458 c 0.1909947,-0.0764 0.4191979,-0.067 0.5071189,0.0209 0.087918,0.0879 -0.068352,0.15045 -0.3472656,0.13896 -0.3082264,-0.0127 -0.3709194,-0.0754 -0.1598533,-0.15985 z M 235.41537,102.71948 c 0.1819,-0.0734 0.47956,-0.0734 0.66146,0 0.1819,0.0734 0.0331,0.13345 -0.33073,0.13345 -0.3638,0 -0.51263,-0.0601 -0.33073,-0.13345 z m 5.55625,0 c 0.1819,-0.0734 0.47956,-0.0734 0.66146,0 0.1819,0.0734 0.0331,0.13345 -0.33073,0.13345 -0.3638,0 -0.51263,-0.0601 -0.33073,-0.13345 z M 4.9798212,102.44938 c 0.1909947,-0.0764 0.4191979,-0.067 0.5071189,0.0209 0.087918,0.0879 -0.068352,0.15045 -0.3472656,0.13896 -0.3082264,-0.0127 -0.3709194,-0.0754 -0.1598533,-0.15985 z m 17.1979168,-0.52917 c 0.190995,-0.0764 0.419201,-0.067 0.507119,0.0209 0.08792,0.0879 -0.06835,0.15046 -0.347266,0.13897 -0.308226,-0.0127 -0.370919,-0.0754 -0.159853,-0.15986 z m -11.90625,-0.26458 c 0.190995,-0.0764 0.419198,-0.067 0.507119,0.0209 0.08792,0.0879 -0.06835,0.15045 -0.347266,0.13896 -0.308226,-0.0127 -0.370919,-0.0754 -0.159853,-0.15985 z m 9.260417,0 c 0.190994,-0.0764 0.419198,-0.067 0.507119,0.0209 0.08792,0.0879 -0.06835,0.15045 -0.347266,0.13896 -0.308226,-0.0127 -0.370919,-0.0754 -0.159853,-0.15985 z m -2.38125,-0.26458 c 0.190994,-0.0764 0.419198,-0.067 0.507119,0.0209 0.08792,0.0879 -0.06835,0.15045 -0.347266,0.13896 -0.308226,-0.0127 -0.370919,-0.0754 -0.159853,-0.15985 z m -3.323829,-0.26623 c 0.254662,-0.0666 0.671381,-0.0666 0.926042,0 0.254662,0.0666 0.0463,0.121 -0.463021,0.121 -0.509323,0 -0.717682,-0.0544 -0.463021,-0.121 z"
         id="path625" /><path
         style="fill:#333333;fill-opacity:1;stroke-width:0.264583"
         d="m 183.067,177.43136 -0.89903,-0.60501 -0.0839,-2.50384 c -0.17356,-5.1778 0.81279,-11.33185 2.74162,-17.10547 0.98458,-2.94719 6.19278,-17.11565 7.02128,-19.1008 0.1445,-0.34623 0.2285,-0.66246 0.18667,-0.70274 -0.13202,-0.12713 -12.02145,0.38445 -15.50045,0.66695 -2.1028,0.17075 -3.40919,0.39206 -3.54293,0.60018 -0.11652,0.18134 -0.79551,1.81798 -1.50886,3.63699 -1.43914,3.6697 -2.50186,7.73536 -3.73461,14.2875 -1.55373,8.25815 -1.2944,7.45849 -2.64441,8.15415 -2.10162,1.08296 -4.37875,0.48441 -5.73484,-1.50742 -2.18317,-3.20664 -1.12969,-13.53027 2.24424,-21.99256 0.43514,-1.09141 0.75037,-2.02731 0.70051,-2.07979 -0.0499,-0.0525 -1.1619,-0.0106 -2.4712,0.093 l -2.38053,0.18841 -2.30111,5.19866 c -2.77228,6.26312 -4.97346,11.69388 -5.56628,13.73312 -0.44672,1.53666 -0.44561,1.70323 0.0608,9.06912 0.32114,4.67067 -1.05521,7.26276 -4.20342,7.91633 -1.11677,0.23184 -1.75312,0.23938 -2.39251,0.0284 -0.98736,-0.32586 -2.82619,-2.11674 -3.45167,-3.36165 -1.00704,-2.00436 -1.01679,-1.95705 3.55106,-17.23158 2.36182,-7.89775 4.24369,-14.41007 4.18193,-14.47184 -0.0618,-0.0618 -2.98771,0.11526 -6.50211,0.39338 l -6.38981,0.50568 -2.2012,1.77858 c -8.2807,6.69083 -16.05804,11.57541 -19.62035,12.32261 -2.76151,0.57923 -4.69632,-0.67962 -7.18736,-4.67633 -1.17776,-1.88964 -3.40062,-6.6199 -4.08185,-8.68621 l -0.32966,-0.99992 -3.341332,0.0739 -3.34133,0.0739 -0.883971,2.11256 c -0.486182,1.16191 -1.83982,5.1505 -3.008082,8.86354 -2.3554,7.48606 -3.009027,8.78847 -5.958057,11.87199 l -1.629955,1.70428 -1.280462,-0.17302 c -2.435762,-0.32913 -3.528327,-1.78825 -3.52901,-4.71296 -5.29e-4,-2.15845 0.544267,-3.76918 4.365816,-12.90849 1.527638,-3.65338 2.777524,-6.71461 2.777524,-6.80272 0,-0.20515 -20.059152,0.0397 -20.266834,0.24741 -0.08554,0.0855 -0.376256,1.87563 -0.646042,3.97798 -1.267213,9.8751 -2.803609,15.55246 -5.17602,19.12664 -1.298934,1.95693 -2.233117,2.56989 -4.125256,2.70675 -1.522989,0.11017 -1.555337,0.0976 -2.698342,-1.04537 -1.480384,-1.48039 -2.156418,-3.57842 -2.521908,-7.8266 -0.248841,-2.89235 -0.08379,-8.72084 0.380531,-13.43783 0.244811,-2.48702 0.34675,-2.44587 -4.685636,-1.89171 -8.629142,0.95021 -19.159003,2.97876 -20.041105,3.86087 -0.250815,0.25081 -3.384772,4.31567 -6.964347,9.03302 -3.579574,4.71734 -6.907157,8.8887 -7.394628,9.26968 -1.7307426,1.35267 -3.1518673,1.90264 -5.2354134,2.0261 -3.8308519,0.22699 -5.96875669,-1.0525 -6.61983808,-3.96184 -0.70558822,-3.1529 0.69699453,-5.41866 9.00400108,-14.54526 l 1.6068596,-1.7654 -2.5908238,0.12696 c -4.9070314,0.24047 -27.9909654,1.73429 -28.0765914,1.81691 -0.04717,0.0455 -0.379617,1.49276 -0.738766,3.21609 -0.518272,2.48686 -0.70481,4.46593 -0.904123,9.59225 -0.20479,5.26718 -0.3283,6.5442 -0.669392,6.9211 -0.56879,0.62851 -3.57799,1.41281 -4.713588,1.22853 -2.211298,-0.35884 -3.319258,-2.1022 -3.535137,-5.56247 -0.157957,-2.53187 0.186388,-5.44374 1.269184,-10.73256 0.428247,-2.09173 0.778631,-3.90743 0.778631,-4.03489 0,-0.12746 -2.176164,-0.23175 -4.83592,-0.23175 -5.72043,0 -6.168725,-0.14472 -5.931314,-1.91476 0.07738,-0.57693 0.482474,-1.60251 0.900203,-2.27908 l 0.759507,-1.23012 4.619908,-0.59025 c 6.301302,-0.80507 6.391175,-0.82925 6.655535,-1.791 0.659444,-2.39907 2.785871,-16.21635 3.03434,-19.71681 0.188758,-2.65923 -0.136201,-3.87713 -1.098966,-4.11877 -0.325721,-0.0817 -3.788121,0.025 -7.694223,0.23731 -4.908455,0.26674 -7.284944,0.30259 -7.69431,0.11607 -0.92159,-0.4199 -1.46838,-2.13893 -1.493684,-4.69593 -0.01653,-1.6701 0.102099,-2.50733 0.460887,-3.2528 0.820444,-1.70467 1.499295,-1.90271 6.629495,-1.93405 4.359013,-0.0266 5.176037,-0.1308 26.4564393,-3.37343 12.0771895,-1.84028 22.5546897,-3.3444 23.2833337,-3.34249 0.728647,0.002 3.305683,0.22853 5.72675,0.50359 6.06185,0.6887 7.372019,1.31511 7.372019,3.52468 0,0.66205 -0.221337,1.10158 -0.859895,1.70756 -2.014771,1.912 -5.598854,3.04229 -13.295313,4.19286 -7.5558942,1.12955 -14.00451507,2.41155 -21.0308219,4.18096 l -5.4204051,1.365 -0.185507,1.10873 c -0.102029,0.60981 -0.478359,2.03856 -0.836293,3.175 -1.112604,3.53254 -5.289314,19.92754 -5.119822,20.09703 0.08839,0.0884 3.052625,-0.15359 6.587194,-0.53772 6.6864068,-0.72667 21.9883274,-2.25897 28.368665,-2.84078 l 3.685926,-0.33611 2.134907,-2.00303 c 1.1742,-1.10166 8.717061,-7.83514 16.761915,-14.96328 15.285966,-13.54413 16.182417,-14.23822 19.458382,-15.06591 2.333969,-0.58969 5.169377,-0.77653 6.46548,-0.42605 1.60114,0.43297 2.846142,1.61557 3.206208,3.04552 0.459571,1.82512 0.351766,6.1878 -0.366509,14.83202 -0.362754,4.36562 -0.659733,8.31127 -0.659955,8.7681 l -5.29e-4,0.83061 5.754687,0.16045 c 3.165078,0.0882 8.13688,0.22707 11.048447,0.30851 l 5.29376,0.14807 3.361277,-6.70548 c 3.435803,-6.85415 6.41154,-11.7596 7.886425,-13.00063 1.03571,-0.8715 2.079,-0.88996 3.84408,-0.068 3.3466,1.55836 5.7591,6.61163 7.26388,15.21508 0.28964,1.65596 0.52661,3.31206 0.52661,3.68023 v 0.66939 l 5.99589,-0.17449 c 3.29785,-0.096 6.97545,-0.1745 8.17255,-0.1745 2.13196,0 2.20951,-0.0231 3.78498,-1.12448 17.50367,-12.23711 24.6499,-16.29082 27.62559,-15.67068 3.1768,0.66205 6,4.7026 6.00413,8.59307 0.001,1.35618 -0.19208,2.1953 -0.91531,3.96875 -0.50442,1.23693 -0.91914,2.27873 -0.92159,2.31511 -0.002,0.0364 1.00908,0.0661 2.24785,0.0661 h 2.25229 l 0.66442,-1.50236 c 1.49006,-3.3693 6.31156,-15.6058 7.89489,-20.03647 1.59951,-4.47593 1.74708,-4.77037 2.66996,-5.32735 1.46869,-0.88639 2.86114,-1.02406 4.23065,-0.41826 1.45793,0.64491 1.57129,1.12104 1.20819,5.07436 -0.56211,6.11993 -1.95968,11.38215 -5.00276,18.83665 -0.57919,1.41882 -0.97179,2.57731 -0.87245,2.57441 0.0993,-0.003 3.51439,-0.23865 7.58897,-0.52389 4.07458,-0.28524 8.09902,-0.521 8.94319,-0.5239 1.48123,-0.005 1.54714,-0.0353 1.88653,-0.86517 0.82673,-2.02143 0.84551,-1.96641 -0.83083,-2.43445 -0.84272,-0.23529 -2.12753,-0.63288 -2.85514,-0.88354 -1.29471,-0.44602 -1.3247,-0.48065 -1.40648,-1.62374 -0.049,-0.68488 0.22426,-2.35387 0.66066,-4.03502 l 0.74423,-2.86703 1.85288,-0.696 c 4.21215,-1.58222 4.51438,-1.79301 6.2309,-4.34584 2.41746,-3.59527 3.06607,-3.77799 10.27116,-2.89343 l 4.92998,0.60526 4.49792,-1.64879 c 9.49063,-3.47897 13.29124,-4.34147 19.18229,-4.35319 3.20461,-0.006 4.18508,0.0912 5.95313,0.59242 5.3631,1.5204 9.33005,4.56081 10.75796,8.24533 0.35634,0.91947 0.61034,2.30663 0.68992,3.76787 0.11549,2.11987 0.0658,2.43571 -0.59623,3.78882 -2.1463,4.38688 -10.03187,7.45217 -22.72038,8.83191 -2.59874,0.28258 -4.76372,0.55254 -4.81111,0.59992 -0.0474,0.0474 2.01935,1.20542 4.59269,2.57344 12.7925,6.80067 17.95841,10.94672 19.65545,15.77504 1.17464,3.3421 0.13361,7.23766 -2.11709,7.92214 -0.56372,0.17144 -1.12242,-0.3087 -5.02708,-4.32012 -3.67062,-3.771 -4.5669,-4.55613 -5.45122,-4.7753 -0.58208,-0.14427 -5.53188,-1.39964 -10.99957,-2.78971 -5.46767,-1.39008 -11.30173,-2.76158 -12.96457,-3.04778 -1.66285,-0.2862 -3.71734,-0.76084 -4.56555,-1.05476 -1.67586,-0.5807 -4.80083,-1.04563 -7.70471,-1.14628 l -1.83857,-0.0637 -2.35332,5.29167 c -2.51124,5.64676 -3.50721,8.90312 -4.29082,14.02902 -1.47609,9.65574 -2.08722,12.24442 -3.6998,15.67193 -1.16202,2.46984 -2.09786,3.68181 -3.55937,4.60961 -1.49128,0.9467 -3.00399,0.99685 -4.27469,0.14172 z m -67.18719,-36.23822 c 0.006,-0.10914 -0.70434,-0.19844 -1.57746,-0.19844 h -1.5875 v 1.01424 c 0,0.55783 0.0741,1.08834 0.16467,1.17891 0.18275,0.18275 2.98436,-1.67987 3.00029,-1.99471 z m -72.521271,-7.19723 c 3.98231,-0.79256 7.29865,-1.4991 7.369646,-1.5701 0.189116,-0.18912 -0.413729,-5.54964 -0.86628,-7.70298 -0.222861,-1.06041 -0.653233,-2.18312 -1.00684,-2.62653 l -0.617599,-0.77444 -0.76808,0.54781 c -1.307872,0.9328 -5.659943,5.59235 -8.719402,9.33545 -3.364775,4.11664 -3.447084,4.2336 -2.978356,4.23257 0.190489,-5.3e-4 3.604598,-0.64923 7.586911,-1.44178 z M 149.20351,131.4697 h 0.96064 l 0.70432,-2.31095 c 0.38738,-1.27103 0.67861,-2.33667 0.64719,-2.3681 -0.0718,-0.0718 -4.61667,3.73641 -5.33102,4.46704 l -0.52917,0.54122 1.2937,-0.1646 c 0.71154,-0.0905 1.72599,-0.16461 2.25434,-0.16461 z m 61.3161,-3.69274 c 3.15166,-0.20349 3.94857,-0.34478 5.02709,-0.89127 0.70493,-0.35719 3.42482,-1.32818 6.04419,-2.15776 12.52543,-3.96692 15.2201,-5.03288 17.55122,-6.94289 1.14141,-0.93522 1.1445,-0.94242 0.62563,-1.4613 -0.80118,-0.80117 -2.68311,-1.02992 -5.94349,-0.72246 -9.02507,0.85109 -22.25997,4.76857 -25.59719,7.57665 -0.68929,0.58 -2.64346,4.08001 -2.64346,4.73456 0,0.1607 0.60582,0.14407 4.93601,-0.13553 z"
         id="path623" /></g></g></svg>
