<?xml version="1.0" encoding="UTF-8" standalone="no"?>
<!-- Created with Inkscape (http://www.inkscape.org/) -->

<svg
   version="1.1"
   id="svg46"
   width="24"
   height="24"
   viewBox="0 0 1108.9397 836.95407"
   xmlns="http://www.w3.org/2000/svg"
   xmlns:svg="http://www.w3.org/2000/svg">
  <defs
     id="defs50" />
  <g
     id="g52"
     transform="translate(-111.71171,-281.01313)">
    <path
       style="fill:#333333;fill-opacity:1;stroke-width:1.33333"
       d="m 111.95024,1116.7462 c 2.85464,-7.1298 406.7835,-691.18846 408.07122,-691.07376 1.2188,0.10854 231.31301,165.69135 275.16248,198.01527 l 6.86876,5.06334 125.13124,-173.87342 c 68.82219,-95.63038 125.73116,-173.86941 126.46456,-173.8645 1.1426,0.008 166.0731,222.0758 167.0027,224.85831 0.2943,0.8808 -326.6849,398.46095 -332.8779,404.75245 -2.30856,2.3453 -8.16876,-1.4008 -168.62709,-107.79567 -91.42947,-60.62398 -167.02452,-109.92261 -167.989,-109.5525 -0.96448,0.3701 -99.59061,95.75698 -219.1692,211.97087 C 212.40944,1021.4604 113.81259,1117.0141 112.8839,1117.588 c -1.13907,0.704 -1.44289,0.4301 -0.93366,-0.8418 z"
       id="path337" />
  </g>
</svg>
